<svg width="172" height="54" viewBox="0 0 172 54" fill="none" xmlns="http://www.w3.org/2000/svg">
<path d="M97.44 8.97L98.1333 17.6367C96.3133 22.5333 91.5467 26 86 26C78.8067 26 73 20.1933 73 13C73 5.80667 78.8067 0 86 0C88.6 0 91.0267 0.78 93.0633 2.08L97.44 8.97Z" fill="#008DB3"/>
<path d="M93.0633 2.08014C93.1933 2.51347 93.3233 2.99014 92.89 2.77347C92.1533 2.38347 91.2 1.95014 91.5033 2.25347C91.8066 2.5568 91.9366 2.90347 91.46 2.86014C90.9833 2.8168 90.1166 2.6868 89.7266 3.25014C89.3366 3.81347 88.8166 3.68347 88.6866 3.90014C88.5566 4.1168 88.34 5.0268 87.95 4.72347C87.56 4.46347 86.78 3.4668 87.43 3.7268C88.08 3.9868 88.8166 3.68347 88.21 2.99014C87.6033 2.2968 86.9966 2.5568 86.7366 2.1668C86.4766 1.7768 85.61 1.30014 84.96 2.25347C84.3533 3.2068 83.79 4.46347 83.4433 4.72347C83.0966 4.98347 82.36 5.46014 82.49 5.85014C82.5766 6.24014 82.62 7.15013 83.01 6.89013C83.4 6.63013 83.6166 6.50014 83.79 6.76014C83.92 7.02014 83.8766 7.54013 84.18 7.54013C84.18 7.54013 84.7866 7.1068 84.83 6.7168C84.8733 6.3268 84.3966 6.11014 84.7433 5.5468C85.09 4.98347 85.87 3.90014 85.6966 4.46347C85.5233 4.98347 85.1333 5.76347 85.4366 6.11014C85.6966 6.4568 87.2133 6.02347 86.52 6.37014C85.8266 6.7168 85.48 6.9768 85.35 7.41014C85.22 7.84347 85.09 8.19014 84.7433 8.0168C84.3966 7.84347 83.9633 7.93013 83.79 7.93013C83.6166 7.93013 83.53 7.15013 83.2266 7.32347C82.9666 7.4968 83.3133 8.06014 83.01 8.10347C82.7066 8.1468 82.6633 8.49347 82.3166 8.75347C81.97 9.01347 81.4933 9.53347 81.19 9.5768C80.8866 9.62014 81.6666 10.0101 81.5366 10.3568C81.4066 10.7468 80.7133 10.7035 80.4533 10.7468C80.1933 10.7901 80.41 11.3101 80.28 11.6135C80.15 11.9168 80.41 12.2201 80.8433 12.2201C81.2766 12.2201 81.71 12.1335 81.7533 11.7435C81.7966 11.3535 82.1866 10.7035 82.49 10.8335C82.75 10.9635 83.4 10.5735 83.53 10.7901C83.66 11.0068 84.4833 11.7435 84.3966 11.8301C84.31 11.9168 83.8333 12.1335 84.0066 12.2201C84.0066 12.2201 84.1366 12.4368 84.2233 12.3935C84.31 12.3501 84.5266 11.7868 84.6566 11.7001C84.7866 11.6135 84.7866 11.3101 84.6133 11.1801C84.3966 11.0501 83.66 10.5301 83.8333 10.2701C84.0066 10.0101 84.3966 10.5735 84.57 10.7468C84.7433 10.9201 85.0033 11.1368 85.0033 11.5268C85.0033 11.9168 85.2633 11.9168 85.2633 12.0901C85.3066 12.3068 85.3933 12.3501 85.61 12.3501C85.8266 12.3068 85.9133 11.8301 85.8266 11.7001C85.6966 11.5701 85.6966 11.3101 85.9566 11.3101C86.2166 11.3101 86.52 11.0935 86.52 10.9635C86.52 10.8335 86.78 10.0535 86.9533 10.0535C87.1266 10.0535 87.2566 10.3568 87.3 10.5301C87.3866 10.7035 87.82 10.4001 87.7333 10.2268C87.6466 10.0535 87.7766 10.0101 87.9066 10.0101C88.0366 10.0101 87.95 10.3568 88.0366 10.4435C88.1666 10.5301 88.7733 10.9201 88.5566 11.1368C88.34 11.3535 88.0366 11.2235 87.82 11.0501C87.6033 10.8768 87.04 10.9635 86.8666 11.1368C86.7366 11.3101 86.6066 11.3968 86.3466 11.3968C86.0866 11.3968 86.13 11.8735 86.3466 12.0468C86.5633 12.2635 86.8666 12.0901 87.0833 12.2201C87.3 12.3501 87.6466 12.0468 87.69 12.2635C87.7333 12.4801 87.6466 13.1301 87.43 13.1735C87.2133 13.2168 86.52 13.3468 86.0433 13.1301C85.5233 12.9135 85.0466 12.8268 85.0033 13.0435C84.96 13.3035 84.96 13.4768 84.6133 13.2601C84.2666 13.0435 83.9633 12.9135 83.7466 12.9135C83.53 12.9135 83.53 12.5235 83.5733 12.2201C83.6166 11.9168 83.0533 12.0035 82.7066 12.0901C82.36 12.1768 81.6666 12.3935 81.2333 12.3935C80.8 12.3935 80.6266 12.4801 80.54 12.6535C80.4533 12.8268 80.0633 12.8268 80.0633 13.1735C80.0633 13.5201 80.1066 13.6068 79.76 13.7801C79.37 13.9101 79.2833 14.6035 79.11 14.7768C78.9366 14.9501 79.2833 15.3835 79.11 15.6435C78.9366 15.8601 78.7633 16.4668 79.0666 16.5968C79.37 16.7268 79.6733 17.3335 79.8033 17.5501C79.9333 17.7668 80.41 17.9835 80.8866 17.8968C81.3633 17.8101 82.23 17.5501 82.7066 17.7668C83.1833 17.9835 83.66 17.9401 83.4433 18.3735C83.1833 18.8068 83.5733 19.3701 83.8766 19.6735C84.18 19.9768 84.0933 20.7568 83.92 20.9735C83.7466 21.2335 83.79 21.6668 83.9633 21.8835C84.1366 22.1001 84.2233 22.6201 84.2233 22.7935C84.2233 23.0101 84.57 23.4001 84.6133 23.7901C84.6566 24.2235 84.3533 24.7001 84.7433 24.7001C85.1333 24.7001 86.13 24.7435 86.2166 24.5701C86.3033 24.3968 87.0833 23.7035 87.3 23.4001C87.5166 23.0968 87.95 22.5768 87.82 22.2735C87.56 22.0568 87.7333 21.8401 88.1666 21.6668C88.6 21.4935 88.6 20.2801 88.3833 19.9768C88.1666 19.6735 88.5566 18.9368 89.0333 18.7201C89.51 18.5035 90.6366 16.5101 90.29 16.6835C89.9 16.8568 89.1633 16.9868 88.9033 16.8135C88.6433 16.6401 87.1266 14.0401 87.3433 13.8668C87.56 13.6935 88.7733 16.2501 88.99 16.5535C89.2066 16.9001 91.2433 15.6435 91.5033 15.3401C91.72 15.0368 91.3733 14.7335 91.2433 14.7335C91.1133 14.7335 90.6366 14.4301 90.5066 14.6035C90.3766 14.7768 89.51 13.3468 89.8133 13.4768C90.1166 13.6068 90.7666 14.0401 91.3733 14.3868C91.98 14.7335 92.6733 14.1701 93.0633 14.8201C93.4966 15.4701 93.7566 15.0368 93.7133 15.3401C93.67 15.6435 94.2333 16.9001 94.45 17.2901C94.6233 17.6801 95.0133 17.1168 95.0566 16.6835C95.1 16.2068 96.01 15.4701 96.3566 15.2101C96.66 14.9501 97.2666 15.3401 97.3533 15.8601C97.44 16.3801 97.8733 15.7735 97.8733 16.1635C97.8733 16.5968 97.7866 17.1601 98.09 17.6801C98.6966 16.1635 99 14.6468 99 13.0001C99 8.4068 96.6166 4.3768 93.0633 2.08014ZM79.24 3.7268C78.98 3.81347 78.72 4.1168 78.3733 3.94347C78.0266 3.77014 77.29 4.03014 77.7666 4.42014C78.2 4.85347 78.0266 5.11347 78.46 5.1568C78.8933 5.20014 79.1533 4.59347 79.4566 4.6368C79.76 4.68014 79.5433 3.64014 79.24 3.7268Z" fill="#FFC942"/>
<path d="M89.77 20.6701C89.4667 20.7135 89.5534 21.3201 89.2067 21.4068C88.9034 21.4935 89.1634 21.7535 88.99 21.9701C88.86 22.1868 88.7734 22.7068 88.99 22.9668C89.2067 23.2701 89.2934 23.2701 89.5534 22.7935C89.8134 22.3601 90.42 20.6268 89.77 20.6701ZM81.06 6.63013C80.93 6.63013 80.8 6.71679 80.67 6.71679C80.54 6.76013 80.4534 6.93346 80.4534 7.10679C80.4534 7.32346 80.8 7.36679 80.67 7.49679C80.54 7.62679 79.8467 7.75679 79.9334 7.97346C80.02 8.19013 80.15 8.36346 80.02 8.58013C79.89 8.79679 80.15 8.84013 80.41 8.75346C80.67 8.66679 80.8434 8.36346 80.8 8.19013C80.7567 7.97346 81.19 7.93013 81.06 8.10346C80.93 8.27679 80.7134 8.71013 80.8434 8.84013C80.9734 8.97013 80.4967 9.18679 80.67 9.27346C80.8434 9.36013 81.32 8.92679 81.58 9.01346C81.84 9.10013 81.9267 8.92679 81.97 8.71013C82.0134 8.45013 81.6234 8.14679 81.4934 7.84346C81.3634 7.49679 81.45 6.63013 81.06 6.63013Z" fill="#FFC942"/>
<path d="M2.09805 49.4964V40.2845H0V38.4626H2.09805V37.6847C2.09805 36.8932 2.26779 36.2245 2.60728 35.6786C2.96035 35.1327 3.42206 34.7165 3.9924 34.4299C4.57632 34.1433 5.22135 34 5.92749 34C6.07687 34 6.23982 34.0136 6.41635 34.0409C6.60647 34.0546 6.76263 34.0751 6.88485 34.1024V35.8014C6.77621 35.7741 6.64721 35.7605 6.49783 35.7605C6.34846 35.7468 6.23303 35.74 6.15155 35.74C5.52689 35.74 5.01087 35.8901 4.60348 36.1904C4.20967 36.4906 4.01277 36.9887 4.01277 37.6847V38.4626H6.62005V40.2845H4.01277V49.4964H2.09805Z" fill="white"/>
<path d="M11.7939 49.7421C11.0742 49.7421 10.4359 49.6124 9.87915 49.3531C9.33597 49.0802 8.90821 48.7117 8.59588 48.2477C8.28355 47.77 8.12738 47.2242 8.12738 46.61C8.12738 46.0232 8.2496 45.4978 8.49403 45.0338C8.75204 44.5561 9.14585 44.1535 9.67546 43.826C10.2186 43.4985 10.8976 43.2665 11.7124 43.13L15.7863 42.4545V44.0512L12.1402 44.6653C11.434 44.7881 10.918 45.0133 10.5921 45.3408C10.2797 45.6684 10.1236 46.071 10.1236 46.5486C10.1236 46.999 10.3001 47.3743 10.6532 47.6745C11.0198 47.9748 11.4748 48.1249 12.0179 48.1249C12.7105 48.1249 13.308 47.9816 13.8104 47.695C14.3265 47.3947 14.7271 46.9922 15.0122 46.4872C15.311 45.9823 15.4604 45.4227 15.4604 44.8086V42.0041C15.4604 41.4036 15.2363 40.9191 14.7882 40.5507C14.3536 40.1685 13.7765 39.9775 13.0568 39.9775C12.4321 39.9775 11.8753 40.1412 11.3865 40.4688C10.9112 40.7827 10.5581 41.2057 10.3273 41.738L8.67736 40.8782C8.88105 40.3733 9.20696 39.9229 9.65509 39.5271C10.1032 39.1177 10.626 38.797 11.2235 38.565C11.821 38.333 12.4457 38.217 13.0975 38.217C13.9394 38.217 14.6795 38.3808 15.3178 38.7083C15.956 39.0222 16.4517 39.4657 16.8047 40.0389C17.1714 40.5984 17.3547 41.2535 17.3547 42.0041V49.4964H15.5011V47.4084L15.8474 47.5312C15.6165 47.9679 15.3042 48.3501 14.9104 48.6776C14.5166 49.0051 14.0549 49.2644 13.5253 49.4555C12.9957 49.6465 12.4185 49.7421 11.7939 49.7421Z" fill="white"/>
<path d="M20.2919 49.4964V34H22.1862V49.4964H20.2919Z" fill="white"/>
<path d="M25.1256 49.4964V34H27.02V49.4964H25.1256Z" fill="white"/>
<path d="M29.9594 49.4964V38.4626H31.8537V49.4964H29.9594ZM29.9594 36.7022V34.2456H31.8537V36.7022H29.9594Z" fill="white"/>
<path d="M34.7931 49.4964V38.4626H36.6467V40.6121L36.3412 40.4278C36.6128 39.7318 37.0473 39.1928 37.6448 38.8106C38.2559 38.4149 38.9689 38.217 39.7836 38.217C40.5712 38.217 41.2706 38.3944 41.8817 38.7492C42.5063 39.1041 42.9952 39.5954 43.3483 40.2231C43.7149 40.8509 43.8982 41.5606 43.8982 42.3521V49.4964H41.9835V42.9662C41.9835 42.3521 41.8749 41.8335 41.6576 41.4104C41.4403 40.9874 41.128 40.6598 40.7206 40.4278C40.3268 40.1822 39.8719 40.0594 39.3559 40.0594C38.8398 40.0594 38.3781 40.1822 37.9708 40.4278C37.5769 40.6598 37.2646 40.9942 37.0338 41.4309C36.8029 41.854 36.6875 42.3657 36.6875 42.9662V49.4964H34.7931Z" fill="white"/>
<path d="M51.8439 54C51.0699 54 50.3501 53.8772 49.6847 53.6315C49.0329 53.3859 48.4694 53.0447 47.9941 52.608C47.5324 52.1849 47.1793 51.6868 46.9349 51.1136L48.707 50.2948C48.8971 50.8134 49.257 51.2501 49.7866 51.6049C50.3298 51.9734 51.0087 52.1576 51.8235 52.1576C52.4482 52.1576 53.0117 52.0348 53.5142 51.7892C54.0302 51.5571 54.4376 51.2023 54.7363 50.7247C55.0351 50.2607 55.1845 49.6943 55.1845 49.0256V46.5486L55.5307 46.9171C55.1505 47.6677 54.6005 48.2409 53.8808 48.6366C53.1747 49.0324 52.3939 49.2303 51.5383 49.2303C50.5063 49.2303 49.5829 48.9915 48.7681 48.5138C47.9533 48.0225 47.3151 47.3606 46.8534 46.5281C46.3917 45.682 46.1608 44.7472 46.1608 43.7236C46.1608 42.6865 46.3917 41.7516 46.8534 40.9191C47.3151 40.0867 47.9465 39.4316 48.7477 38.9539C49.5625 38.4626 50.4859 38.217 51.518 38.217C52.3735 38.217 53.1475 38.4149 53.8401 38.8106C54.5462 39.1928 55.1098 39.725 55.5307 40.4074L55.2456 40.9191V38.4626H57.0992V49.0256C57.0992 49.9809 56.8751 50.8338 56.427 51.5844C55.9789 52.335 55.3542 52.9219 54.553 53.3449C53.7654 53.7816 52.8624 54 51.8439 54ZM51.7013 47.3879C52.3531 47.3879 52.937 47.2242 53.4531 46.8966C53.9827 46.5691 54.4036 46.1324 54.716 45.5865C55.0283 45.027 55.1845 44.406 55.1845 43.7236C55.1845 43.0549 55.0283 42.4408 54.716 41.8813C54.4036 41.3217 53.9827 40.8782 53.4531 40.5507C52.937 40.2231 52.3531 40.0594 51.7013 40.0594C51.0359 40.0594 50.4316 40.2231 49.8884 40.5507C49.3452 40.8782 48.9175 41.3217 48.6052 41.8813C48.3064 42.4272 48.157 43.0413 48.157 43.7236C48.157 44.406 48.3064 45.027 48.6052 45.5865C48.9175 46.1324 49.3385 46.5691 49.8681 46.8966C50.4112 47.2242 51.0223 47.3879 51.7013 47.3879Z" fill="white"/>
<path d="M68.7715 49.7421C67.7123 49.7421 66.7549 49.4964 65.8994 49.0051C65.0439 48.5002 64.3649 47.811 63.8625 46.9376C63.36 46.0641 63.1088 45.0747 63.1088 43.9693C63.1088 42.8639 63.3532 41.8813 63.8421 41.0215C64.3445 40.1617 65.0235 39.4794 65.879 38.9744C66.7345 38.4695 67.6987 38.217 68.7715 38.217C69.8307 38.217 70.7881 38.4695 71.6436 38.9744C72.4991 39.4657 73.1713 40.1412 73.6601 41.001C74.1626 41.8608 74.4138 42.8502 74.4138 43.9693C74.4138 45.0884 74.1558 46.0846 73.6398 46.958C73.1237 47.8178 72.438 48.5002 71.5825 49.0051C70.7405 49.4964 69.8035 49.7421 68.7715 49.7421ZM68.7715 47.8997C69.4505 47.8997 70.0615 47.7291 70.6047 47.3879C71.1615 47.0467 71.596 46.5759 71.9084 45.9754C72.2343 45.375 72.3972 44.7062 72.3972 43.9693C72.3972 43.2187 72.2343 42.5568 71.9084 41.9836C71.596 41.3968 71.1615 40.9328 70.6047 40.5916C70.0615 40.2368 69.4505 40.0594 68.7715 40.0594C68.0789 40.0594 67.4543 40.2368 66.8975 40.5916C66.3543 40.9328 65.9198 41.3968 65.5939 41.9836C65.2679 42.5568 65.105 43.2187 65.105 43.9693C65.105 44.7062 65.2679 45.375 65.5939 45.9754C65.9198 46.5759 66.3543 47.0467 66.8975 47.3879C67.4543 47.7291 68.0789 47.8997 68.7715 47.8997Z" fill="#BEF264"/>
<path d="M76.8845 49.4964V38.4626H78.7382V40.6121L78.4326 40.4278C78.7042 39.7318 79.1388 39.1928 79.7363 38.8106C80.3473 38.4149 81.0603 38.217 81.875 38.217C82.6627 38.217 83.362 38.3944 83.9731 38.7492C84.5977 39.1041 85.0866 39.5954 85.4397 40.2231C85.8063 40.8509 85.9897 41.5606 85.9897 42.3521V49.4964H84.0749V42.9662C84.0749 42.3521 83.9663 41.8335 83.749 41.4104C83.5318 40.9874 83.2194 40.6598 82.812 40.4278C82.4182 40.1822 81.9633 40.0594 81.4473 40.0594C80.9313 40.0594 80.4696 40.1822 80.0622 40.4278C79.6684 40.6598 79.356 40.9942 79.1252 41.4309C78.8943 41.854 78.7789 42.3657 78.7789 42.9662V49.4964H76.8845Z" fill="#BEF264"/>
<path d="M91.5725 49.4964V36.088H87.4578V34.2456H97.6425V36.088H93.589V49.4964H91.5725Z" fill="white"/>
<path d="M99.3426 49.4964V34H101.237V40.6121L100.891 40.4278C101.162 39.7318 101.597 39.1928 102.194 38.8106C102.805 38.4149 103.518 38.217 104.333 38.217C105.121 38.217 105.82 38.3944 106.431 38.7492C107.056 39.1041 107.545 39.5954 107.898 40.2231C108.264 40.8509 108.448 41.5606 108.448 42.3521V49.4964H106.533V42.9662C106.533 42.3521 106.418 41.8335 106.187 41.4104C105.969 40.9874 105.664 40.6598 105.27 40.4278C104.876 40.1822 104.421 40.0594 103.905 40.0594C103.403 40.0594 102.948 40.1822 102.541 40.4278C102.133 40.6598 101.814 40.9942 101.583 41.4309C101.352 41.854 101.237 42.3657 101.237 42.9662V49.4964H99.3426Z" fill="white"/>
<path d="M116.21 49.7421C115.151 49.7421 114.207 49.4896 113.379 48.9846C112.55 48.4797 111.898 47.7905 111.423 46.9171C110.948 46.03 110.71 45.0406 110.71 43.9488C110.71 42.8434 110.941 41.8608 111.403 41.001C111.878 40.1412 112.516 39.4657 113.318 38.9744C114.132 38.4695 115.042 38.217 116.047 38.217C116.862 38.217 117.582 38.3671 118.206 38.6673C118.844 38.9539 119.381 39.3497 119.815 39.8547C120.264 40.346 120.603 40.9123 120.834 41.5537C121.078 42.1815 121.201 42.8366 121.201 43.5189C121.201 43.6691 121.187 43.8396 121.16 44.0307C121.146 44.2081 121.126 44.3787 121.099 44.5425H112.095V42.9048H119.999L119.102 43.6418C119.225 42.9321 119.157 42.2975 118.899 41.738C118.641 41.1784 118.261 40.7349 117.758 40.4074C117.256 40.0798 116.685 39.9161 116.047 39.9161C115.409 39.9161 114.825 40.0798 114.295 40.4074C113.766 40.7349 113.352 41.2057 113.053 41.8199C112.768 42.4203 112.652 43.1368 112.706 43.9693C112.652 44.7745 112.774 45.4841 113.073 46.0983C113.385 46.6987 113.82 47.1696 114.377 47.5107C114.947 47.8383 115.565 48.002 116.23 48.002C116.964 48.002 117.582 47.8315 118.084 47.4903C118.586 47.1491 118.994 46.7124 119.306 46.1801L120.895 46.999C120.678 47.5039 120.338 47.9679 119.877 48.391C119.428 48.8004 118.892 49.1279 118.267 49.3736C117.656 49.6192 116.97 49.7421 116.21 49.7421Z" fill="white"/>
<path d="M123.895 49.4964V34.2456H129.252C130.257 34.2456 131.139 34.4367 131.9 34.8188C132.66 35.201 133.251 35.7468 133.672 36.4565C134.106 37.1662 134.324 37.9986 134.324 38.9539C134.324 40.0321 134.052 40.9464 133.509 41.697C132.966 42.4476 132.232 42.9867 131.309 43.3142L134.833 49.4964H132.511L128.804 42.8843L130.128 43.6622H125.891V49.4964H123.895ZM125.891 41.8199H129.313C129.91 41.8199 130.433 41.7039 130.881 41.4719C131.329 41.2399 131.676 40.9055 131.92 40.4688C132.178 40.0321 132.307 39.5271 132.307 38.9539C132.307 38.3671 132.178 37.8622 131.92 37.4391C131.676 37.0024 131.329 36.668 130.881 36.436C130.433 36.204 129.91 36.088 129.313 36.088H125.891V41.8199Z" fill="white"/>
<path d="M141.477 49.7421C140.417 49.7421 139.46 49.4964 138.605 49.0051C137.749 48.5002 137.07 47.811 136.568 46.9376C136.065 46.0641 135.814 45.0747 135.814 43.9693C135.814 42.8639 136.058 41.8813 136.547 41.0215C137.05 40.1617 137.729 39.4794 138.584 38.9744C139.44 38.4695 140.404 38.217 141.477 38.217C142.536 38.217 143.493 38.4695 144.349 38.9744C145.204 39.4657 145.876 40.1412 146.365 41.001C146.868 41.8608 147.119 42.8502 147.119 43.9693C147.119 45.0884 146.861 46.0846 146.345 46.958C145.829 47.8178 145.143 48.5002 144.288 49.0051C143.446 49.4964 142.509 49.7421 141.477 49.7421ZM141.477 47.8997C142.156 47.8997 142.767 47.7291 143.31 47.3879C143.867 47.0467 144.301 46.5759 144.614 45.9754C144.939 45.375 145.102 44.7062 145.102 43.9693C145.102 43.2187 144.939 42.5568 144.614 41.9836C144.301 41.3968 143.867 40.9328 143.31 40.5916C142.767 40.2368 142.156 40.0594 141.477 40.0594C140.784 40.0594 140.159 40.2368 139.603 40.5916C139.059 40.9328 138.625 41.3968 138.299 41.9836C137.973 42.5568 137.81 43.2187 137.81 43.9693C137.81 44.7062 137.973 45.375 138.299 45.9754C138.625 46.5759 139.059 47.0467 139.603 47.3879C140.159 47.7291 140.784 47.8997 141.477 47.8997Z" fill="white"/>
<path d="M152.808 49.7421C152.088 49.7421 151.45 49.6124 150.893 49.3531C150.35 49.0802 149.922 48.7117 149.61 48.2477C149.298 47.77 149.142 47.2242 149.142 46.61C149.142 46.0232 149.264 45.4978 149.508 45.0338C149.766 44.5561 150.16 44.1535 150.69 43.826C151.233 43.4985 151.912 43.2665 152.727 43.13L156.8 42.4545V44.0512L153.154 44.6653C152.448 44.7881 151.932 45.0133 151.606 45.3408C151.294 45.6684 151.138 46.071 151.138 46.5486C151.138 46.999 151.314 47.3743 151.667 47.6745C152.034 47.9748 152.489 48.1249 153.032 48.1249C153.725 48.1249 154.322 47.9816 154.825 47.695C155.341 47.3947 155.741 46.9922 156.026 46.4872C156.325 45.9823 156.475 45.4227 156.475 44.8086V42.0041C156.475 41.4036 156.25 40.9191 155.802 40.5507C155.368 40.1685 154.791 39.9775 154.071 39.9775C153.446 39.9775 152.89 40.1412 152.401 40.4688C151.925 40.7827 151.572 41.2057 151.341 41.738L149.692 40.8782C149.895 40.3733 150.221 39.9229 150.669 39.5271C151.117 39.1177 151.64 38.797 152.238 38.565C152.835 38.333 153.46 38.217 154.112 38.217C154.954 38.217 155.694 38.3808 156.332 38.7083C156.97 39.0222 157.466 39.4657 157.819 40.0389C158.186 40.5984 158.369 41.2535 158.369 42.0041V49.4964H156.515V47.4084L156.862 47.5312C156.631 47.9679 156.318 48.3501 155.925 48.6776C155.531 49.0051 155.069 49.2644 154.539 49.4555C154.01 49.6465 153.433 49.7421 152.808 49.7421Z" fill="white"/>
<path d="M166.297 49.7421C165.265 49.7421 164.334 49.4896 163.506 48.9846C162.691 48.4797 162.046 47.7905 161.571 46.9171C161.096 46.0437 160.858 45.0679 160.858 43.9898C160.858 42.8843 161.096 41.9017 161.571 41.042C162.046 40.1685 162.691 39.4794 163.506 38.9744C164.334 38.4695 165.265 38.217 166.297 38.217C167.206 38.217 168.014 38.4149 168.721 38.8106C169.427 39.1928 169.983 39.7114 170.391 40.3664L170.085 40.8373V34H172V49.4964H170.146V47.1423L170.391 47.4698C170.011 48.1931 169.454 48.7526 168.721 49.1484C168.001 49.5442 167.193 49.7421 166.297 49.7421ZM166.46 47.8997C167.152 47.8997 167.77 47.7291 168.313 47.3879C168.856 47.0467 169.284 46.5827 169.596 45.9959C169.922 45.3954 170.085 44.7267 170.085 43.9898C170.085 43.2392 169.922 42.5705 169.596 41.9836C169.284 41.3831 168.856 40.9123 168.313 40.5711C167.77 40.23 167.152 40.0594 166.46 40.0594C165.781 40.0594 165.163 40.2368 164.606 40.5916C164.063 40.9328 163.635 41.3968 163.323 41.9836C163.01 42.5568 162.854 43.2255 162.854 43.9898C162.854 44.7267 163.01 45.3954 163.323 45.9959C163.635 46.5827 164.063 47.0467 164.606 47.3879C165.149 47.7291 165.767 47.8997 166.46 47.8997Z" fill="white"/>
<path d="M90.1141 49.4964C90.1141 50.0617 89.6582 50.52 89.0957 50.52C88.5332 50.52 88.0772 50.0617 88.0772 49.4964C88.0772 48.9311 88.5332 48.4729 89.0957 48.4729C89.6582 48.4729 90.1141 48.9311 90.1141 49.4964Z" fill="#D9D9D9"/>
</svg>
